<svg width="160" height="160" viewBox="0 0 160 160" fill="none" xmlns="http://www.w3.org/2000/svg">
<rect width="160" height="160" rx="20" fill="#2A2A2A"/>
<path d="M87.2139 87.1863C96.5692 80.2506 110.027 78.4548 121.441 78.9822C124.414 79.1196 127.38 79.3931 130.328 79.8005C131.115 79.9105 131.972 79.9941 132.778 80.2C133.582 80.4052 134.319 80.7281 134.864 81.3044V81.3054C135.507 81.9938 135.846 82.9112 135.803 83.8503C135.756 84.8005 135.327 85.6918 134.612 86.321H134.611C133.847 87.0013 133.119 87.2108 132.354 87.2195C131.575 87.2282 130.77 87.0314 129.826 86.8923C128.355 86.6752 126.877 86.4989 125.396 86.366H125.395C115.21 85.5005 104.627 86.035 95.2559 90.5037L95.3066 90.741L95.4043 90.7439H95.4053C95.8521 90.7513 96.3424 90.7217 96.832 90.6873C97.0779 90.6699 97.3237 90.652 97.5645 90.6355L98.2676 90.5964C99.9169 90.5448 101.567 90.5604 103.215 90.6443C112.431 91.1164 121.791 93.9169 130.275 97.4578C131.038 97.7759 132.43 98.3518 133.762 98.9832C134.428 99.2989 135.077 99.6273 135.623 99.9441C136.172 100.263 136.608 100.563 136.855 100.821C137.096 101.072 137.267 101.355 137.407 101.668L137.538 101.992C137.982 103.193 138.219 104.518 138.536 105.784L140.129 112.163C140.385 113.184 140.664 114.437 140.953 115.436L140.971 115.499L141.033 115.52C141.629 115.721 142.095 115.926 142.485 116.222C142.874 116.518 143.193 116.909 143.488 117.491C143.545 117.604 143.619 117.786 143.693 117.968C143.757 118.123 143.824 118.281 143.875 118.38V119.653C143.379 120.848 142.962 121.716 141.714 122.264C141.105 122.532 140.479 122.62 139.837 122.487C137.773 122.058 135.657 121.486 133.607 120.966L121.58 117.909H121.579L106.031 113.969H106.03L101 112.692C100.292 112.512 99.2565 112.288 98.6016 112.081L98.5078 112.052L98.457 112.136C97.8174 113.204 97.2979 114.066 96.5322 115.04C93.9832 118.26 90.4681 120.577 86.5068 121.655L86.1221 121.756C81.1879 122.959 75.978 122.179 71.6143 119.586C69.3422 118.225 67.3802 116.406 65.8545 114.244C65.6546 113.961 65.4032 113.545 65.1602 113.143C64.9199 112.747 64.6849 112.361 64.5234 112.15L64.4736 112.085L64.3936 112.105L35.3301 119.468L27.4248 121.475C26.8883 121.612 26.0427 121.843 25.1934 122.055C24.5566 122.215 23.9283 122.362 23.4434 122.449L23.0117 122.514C22.2511 122.593 21.485 122.424 20.8291 122.032H20.8301C20.1235 121.603 19.6632 120.959 19.3281 120.217L19.1924 119.892C19.1773 119.854 19.1664 119.829 19.1523 119.804C19.1452 119.792 19.1359 119.777 19.125 119.76V118.31C19.331 117.923 19.4881 117.59 19.6299 117.311C19.7769 117.023 19.9111 116.787 20.0791 116.582C20.4107 116.177 20.8897 115.871 21.9121 115.544L21.9736 115.524L21.9932 115.464C22.3588 114.335 22.6742 112.926 22.9629 111.77L24.4688 105.742C24.6469 105.029 24.8195 104.213 25.0352 103.406C25.25 102.602 25.503 101.829 25.8311 101.224C26.1734 100.593 26.9257 100.111 27.6133 99.7781C37.5501 94.9724 48.557 91.4097 59.6123 90.6511C62.6245 90.4448 64.8462 90.6013 67.7441 90.8035L67.8135 90.5701C66.4513 89.8101 64.4509 89.0256 62.9707 88.5349C55.0448 85.9103 45.9957 85.6888 37.7324 86.364H37.7314C36.4538 86.4744 35.1792 86.6216 33.9102 86.8064C33.659 86.8419 33.3629 86.8913 33.0479 86.9431C32.732 86.9951 32.3959 87.0506 32.0615 87.0984C31.3891 87.1946 30.7367 87.26 30.2793 87.2185C29.6575 87.162 28.9877 86.8356 28.4346 86.364C27.8813 85.8922 27.4591 85.2875 27.3184 84.6892L27.3174 84.6843L27.2725 84.5037C26.8585 82.6359 27.9969 80.6933 29.9082 80.2673C30.6942 80.0925 31.4977 79.9772 32.3115 79.8552L32.3105 79.8542C34.3973 79.5454 36.4954 79.3169 38.5996 79.1667C50.1041 78.3496 63.0609 79.3996 73.1133 85.4314C75.4063 86.8021 77.5176 88.4552 79.3965 90.3523C79.5777 90.537 80.0232 91.0452 80.4678 91.5251C80.6877 91.7626 80.9063 91.9916 81.0869 92.1648C81.177 92.2512 81.2602 92.3257 81.3301 92.3806C81.3649 92.408 81.3985 92.4322 81.4297 92.4509C81.4584 92.4681 81.4951 92.487 81.5342 92.4939L81.5947 92.5046L81.6396 92.4636C81.8993 92.2283 82.1908 91.9015 82.4775 91.571C82.7665 91.238 83.0514 90.9006 83.3066 90.6345H83.3076C84.5074 89.3751 85.8142 88.2211 87.2139 87.1873V87.1863ZM76.668 100.527C72.4232 98.3539 66.272 97.3423 61.4492 97.6335L60.9873 97.6658C52.0686 98.2333 44.1413 100.411 35.9053 103.811C35.4799 103.987 34.6216 104.336 33.7949 104.7C33.3816 104.882 32.9746 105.067 32.6328 105.237C32.2941 105.405 32.0102 105.562 31.8486 105.685L31.8193 105.708L31.8066 105.743C31.5367 106.497 31.3712 107.382 31.167 108.142C30.9384 108.994 30.7318 109.871 30.5234 110.744C30.3149 111.618 30.1051 112.489 29.8701 113.33L29.8135 113.53L30.0166 113.486C32.9367 112.853 36.2555 111.925 39.1709 111.186L56.3125 106.841H56.3135L62.6797 105.221C63.7186 104.958 64.7765 104.646 65.8135 104.468L66.2568 104.399C67.9018 104.181 69.3722 105.216 69.9365 106.745C70.2468 107.586 70.6257 108.535 71.0811 109.307C73.7072 113.749 78.8748 116.03 83.9355 114.984C87.0688 114.337 89.8177 112.479 91.584 109.817L91.585 109.818C91.9562 109.267 92.2734 108.681 92.5322 108.069C92.7582 107.536 92.9436 107.054 93.1426 106.615C93.3402 106.178 93.5459 105.798 93.8047 105.479C94.3139 104.852 95.0438 104.442 96.3838 104.356C96.9503 104.398 97.7143 104.557 98.4922 104.746C99.2733 104.936 100.053 105.152 100.658 105.305L107.444 107.029L132.986 113.5L133.201 113.553L133.137 113.342C132.785 112.179 132.468 110.884 132.156 109.576C131.845 108.269 131.541 106.947 131.216 105.736L131.203 105.69L131.163 105.664C130.899 105.491 130.52 105.302 130.134 105.125L129.064 104.655C127.604 104.01 126.126 103.405 124.633 102.842H124.632C115.066 99.2037 103.413 96.3053 93.1123 98.281L92.623 98.3796C90.7797 98.7541 88.9817 99.3244 87.2598 100.082H87.2588C86.695 100.333 86.1717 100.596 85.6436 100.881L85.1123 101.174C84.8326 101.331 84.5616 101.508 84.2949 101.684C84.0272 101.861 83.764 102.038 83.4951 102.198C82.9578 102.519 82.4082 102.768 81.7861 102.82C80.7664 102.905 79.9979 102.513 79.1992 102.016L78.3799 101.498C77.8227 101.152 77.2521 100.828 76.6689 100.527H76.668Z" fill="url(#paint0_linear_11_14)" stroke="url(#paint1_linear_11_14)" stroke-width="0.25"/>
<path d="M79.8134 34.9146L79.8134 78.7941" stroke="url(#paint2_linear_11_14)" stroke-width="10" stroke-miterlimit="2.9987" stroke-linecap="round"/>
<path d="M102.4 57.1724L80.3542 79.2179" stroke="url(#paint3_linear_11_14)" stroke-width="10" stroke-linecap="round"/>
<defs>
<linearGradient id="paint0_linear_11_14" x1="81.5" y1="78.7712" x2="81.5" y2="122.674" gradientUnits="userSpaceOnUse">
<stop stop-color="#30E0F3"/>
<stop offset="1" stop-color="#A5F6FF"/>
</linearGradient>
<linearGradient id="paint1_linear_11_14" x1="19" y1="100.722" x2="144" y2="100.722" gradientUnits="userSpaceOnUse">
<stop stop-color="#AFCCFF"/>
<stop offset="1" stop-color="#3378F6"/>
</linearGradient>
<linearGradient id="paint2_linear_11_14" x1="79.3134" y1="34.9146" x2="79.3134" y2="78.7941" gradientUnits="userSpaceOnUse">
<stop stop-color="#AFCCFF"/>
<stop offset="1" stop-color="#3378F6"/>
</linearGradient>
<linearGradient id="paint3_linear_11_14" x1="102.046" y1="56.8188" x2="80.0006" y2="78.8644" gradientUnits="userSpaceOnUse">
<stop stop-color="#AFCCFF"/>
<stop offset="1" stop-color="#3378F6"/>
</linearGradient>
</defs>
</svg>
